<svg id="svg-bzflag" xmlns="http://www.w3.org/2000/svg" viewBox="26 71 286 353">
  <path d="M149 71v149.9l3.8-.7c5-.9 28.9-.9 33 0l3.2.7V71h-40zM40.4 98L26 112.6v297.2L40.5 424h39.9L94 410.6l.1-11.7C83.6 393 75.2 380.7 66 373.3V189.5L92.4 165c.3-13.5 1.4-37.9 1.6-53.4L80.6 98H40.4zm218 0L244 112.6l1.7 52.4c9.2 8.2 16.3 15.4 26.3 24.4v184.1L245.8 398c-3.5 1.8-1.2 8.6-1.8 12l14.3 14h40.1l13.6-13.4v-299L298.6 98h-40.2zM98.5 180L81 197v169.5L97.5 383H118v17h38v-17h34v16h30v-16h20.8l16.2-16.1V196.5L240.5 180H204v47.7l9.3 9.4c17.4 17.6 17.7 19 17.7 71.8v40.5l-7.4 7.6H114.4l-7.5-7.7.3-42.4c.3-40.5.4-42.7 2.5-48.2 3.1-8.3 8.4-15.8 16.9-23.6l7.4-6.9V180H98.5zm68.8 54c-4.2.1-8.3.7-12 1.8-12.4 3.8-22.2 11.8-28.2 23-5.4 10.2-6.1 15.9-6.1 51.4V342h95v-34.3c0-36.4-.1-37.7-5-48.2-3.6-7.7-15-18.3-23.5-21.9-6-2.6-13.3-3.8-20.2-3.6z"/>
</svg>
