<svg viewBox="0 0 308.59 71.69" xmlns="http://www.w3.org/2000/svg"><path d="m23.17 54.26v-18.13c0-2.6-.36-4.47-1.09-5.62-.72-1.15-2.04-1.72-3.96-1.72-1.4 0-2.69.48-3.86 1.44s-1.95 2.18-2.33 3.67v20.36h-8.29v-44.68h8.3v16.34h.26c1.02-1.36 2.28-2.45 3.77-3.26s3.38-1.21 5.68-1.21c1.62 0 3.04.21 4.28.64 1.23.43 2.27 1.13 3.1 2.11s1.45 2.31 1.85 3.99.61 3.76.61 6.22v19.85h-8.3z"/><path d="m37.98 13.34c0-1.23.46-2.29 1.37-3.16s2.18-1.31 3.8-1.31 2.93.44 3.93 1.31 1.5 1.93 1.5 3.16-.5 2.27-1.5 3.1-2.31 1.25-3.93 1.25-2.88-.42-3.8-1.25-1.37-1.86-1.37-3.1zm1.21 9h8.3v31.92h-8.3z"/><path d="m82.61 54.26c0 4.64-1.26 8.05-3.77 10.25-2.51 2.19-6.02 3.29-10.53 3.29-3.06 0-5.48-.21-7.25-.64s-3.1-.87-3.99-1.34l1.72-6.58c.98.38 2.12.77 3.42 1.15s2.9.57 4.82.57c2.89 0 4.86-.63 5.9-1.88 1.04-1.26 1.56-3.01 1.56-5.27v-2.04h-.26c-1.49 2-4.13 3-7.92 3-4.13 0-7.2-1.28-9.22-3.83s-3.03-6.55-3.03-12 1.36-10.02 4.09-12.96c2.72-2.94 6.68-4.4 11.87-4.4 2.72 0 5.16.19 7.31.57s3.9.83 5.27 1.34v30.77zm-14.04-6.13c1.62 0 2.86-.36 3.73-1.09.87-.72 1.54-1.81 2.01-3.26v-14.36c-1.32-.55-2.96-.83-4.92-.83-2.13 0-3.79.8-4.98 2.39-1.19 1.6-1.79 4.14-1.79 7.63 0 3.11.51 5.47 1.53 7.09s2.49 2.43 4.41 2.43z"/><path d="m109.35 54.26v-18.13c0-2.6-.36-4.47-1.09-5.62-.72-1.15-2.04-1.72-3.96-1.72-1.4 0-2.69.48-3.86 1.44s-1.95 2.18-2.33 3.67v20.36h-8.3v-44.68h8.3v16.34h.26c1.02-1.36 2.28-2.45 3.77-3.26s3.38-1.21 5.68-1.21c1.62 0 3.04.21 4.28.64 1.23.43 2.27 1.13 3.1 2.11s1.45 2.31 1.85 3.99.61 3.76.61 6.22v19.85h-8.3z"/><path d="m133.17 43.54c0 1.49.19 2.58.57 3.26s1 1.02 1.85 1.02c.51 0 1.01-.04 1.5-.13.49-.08 1.1-.28 1.82-.57l.89 6.51c-.68.34-1.72.68-3.13 1.02-1.4.34-2.85.51-4.34.51-2.43 0-4.28-.56-5.55-1.69-1.28-1.13-1.92-2.99-1.92-5.59v-38.3h8.3v33.96z"/><path d="m142.93 13.34c0-1.23.46-2.29 1.37-3.16s2.18-1.31 3.8-1.31 2.93.44 3.93 1.31 1.5 1.93 1.5 3.16-.5 2.27-1.5 3.1-2.31 1.25-3.93 1.25-2.88-.42-3.8-1.25-1.37-1.86-1.37-3.1zm1.21 9h8.3v31.92h-8.3z"/><path d="m187.55 54.26c0 4.64-1.26 8.05-3.77 10.25-2.51 2.19-6.02 3.29-10.53 3.29-3.06 0-5.48-.21-7.25-.64s-3.1-.87-3.99-1.34l1.72-6.58c.98.38 2.12.77 3.42 1.15s2.9.57 4.82.57c2.89 0 4.86-.63 5.9-1.88 1.04-1.26 1.56-3.01 1.56-5.27v-2.04h-.26c-1.49 2-4.13 3-7.92 3-4.13 0-7.2-1.28-9.22-3.83s-3.03-6.55-3.03-12 1.36-10.02 4.09-12.96c2.72-2.94 6.68-4.4 11.87-4.4 2.72 0 5.16.19 7.31.57s3.9.83 5.27 1.34v30.77zm-14.04-6.13c1.62 0 2.86-.36 3.73-1.09.87-.72 1.54-1.81 2.01-3.26v-14.36c-1.32-.55-2.96-.83-4.92-.83-2.13 0-3.79.8-4.98 2.39-1.19 1.6-1.79 4.14-1.79 7.63 0 3.11.51 5.47 1.53 7.09s2.49 2.43 4.41 2.43z"/><path d="m214.3 54.26v-18.13c0-2.6-.36-4.47-1.09-5.62-.72-1.15-2.04-1.72-3.96-1.72-1.4 0-2.69.48-3.86 1.44s-1.95 2.18-2.33 3.67v20.36h-8.3v-44.68h8.3v16.34h.26c1.02-1.36 2.28-2.45 3.77-3.26s3.38-1.21 5.68-1.21c1.62 0 3.04.21 4.28.64 1.23.43 2.27 1.13 3.1 2.11s1.45 2.31 1.85 3.99.61 3.76.61 6.22v19.85h-8.3z"/><path d="m226.24 22.34h4.4v-6l8.3-2.36v8.36h7.79v7.02h-7.79v12.26c0 2.21.22 3.8.67 4.76s1.29 1.44 2.52 1.44c.85 0 1.58-.08 2.2-.26.62-.17 1.31-.42 2.08-.77l1.47 6.38c-1.15.55-2.49 1.02-4.02 1.4s-3.09.57-4.66.57c-2.94 0-5.1-.76-6.48-2.27s-2.08-3.99-2.08-7.44v-16.09h-4.4v-7.02z"/><path d="m251.52 50.05c0-1.49.47-2.67 1.4-3.54.94-.87 2.17-1.31 3.7-1.31 1.62 0 2.89.44 3.83 1.31s1.41 2.05 1.41 3.54-.47 2.68-1.41 3.58c-.94.89-2.21 1.34-3.83 1.34-1.53 0-2.77-.45-3.7-1.34-.94-.89-1.4-2.08-1.4-3.58z"/><path d="m268.95 22.34h8.3v33.26c0 3.87-.77 6.83-2.3 8.87s-3.98 3.06-7.34 3.06c-1.28 0-2.64-.15-4.09-.45v-6.96c.17 0 .32 0 .45.03.13.02.25.03.38.03 1.92 0 3.16-.62 3.73-1.85.57-1.24.86-2.94.86-5.11v-30.9zm-1.09-9c0-1.23.46-2.29 1.37-3.16s2.18-1.31 3.8-1.31 2.93.44 3.93 1.31 1.5 1.93 1.5 3.16-.5 2.27-1.5 3.1-2.31 1.25-3.93 1.25-2.88-.42-3.8-1.25-1.37-1.86-1.37-3.1z"/><path d="m298.5 45.45c0-.85-.36-1.53-1.09-2.04s-1.62-.98-2.68-1.4-2.23-.86-3.51-1.31-2.45-1.06-3.51-1.85-1.96-1.79-2.68-3-1.09-2.78-1.09-4.69c0-3.15.94-5.55 2.81-7.21s4.57-2.49 8.11-2.49c2.43 0 4.62.26 6.58.77s3.49 1.09 4.6 1.72l-1.85 6c-.98-.38-2.21-.79-3.7-1.21s-3-.64-4.53-.64c-2.47 0-3.7.96-3.7 2.87 0 .77.36 1.38 1.09 1.85.72.47 1.62.9 2.68 1.31s2.23.84 3.51 1.31 2.45 1.08 3.51 1.82c1.06.75 1.96 1.71 2.68 2.9s1.08 2.72 1.08 4.6c0 3.23-1.03 5.78-3.1 7.63-2.06 1.85-5.16 2.78-9.29 2.78-2.26 0-4.37-.29-6.35-.86s-3.59-1.24-4.82-2.01l2.3-6.19c.98.55 2.28 1.1 3.89 1.63 1.62.53 3.28.8 4.98.8 1.23 0 2.22-.23 2.97-.7.74-.47 1.12-1.25 1.12-2.36z"/></svg>