<svg enable-background="new 0 0 514.8 69" viewBox="0 0 514.8 69" xmlns="http://www.w3.org/2000/svg"><path d="m121.2 68.9c-1.4.1-2.8-.1-4.1-.7-.8-.4-1.3-1.3-1.2-2.2 0-1.4 1.1-2.4 3.2-3.1l1.1-.4c.8-.2 1.4-.7 1.9-1.3.4-.9.6-2 .5-3v-47.5c.1-1-.1-2.1-.5-3-.5-.6-1.2-1.1-1.9-1.3-.2-.1-.6-.2-1.1-.4-2.1-.7-3.2-1.7-3.2-3-.1-.9.4-1.8 1.2-2.2 1.3-.5 2.7-.7 4.1-.6h31.3v68.8zm35.2 0v-5.9c3.5-.1 5.9-.7 7.3-2s2.1-3.5 2.1-6.6v-10c0-3.1-.7-5.3-2.1-6.6s-3.8-1.9-7.2-2v-5.8c3.4-.1 5.8-.7 7.2-2s2.1-3.5 2.1-6.6v-6.7c0-3.1-.7-5.4-2.1-6.6-1.4-1.3-3.8-2-7.3-2v-6c.7 0 1.4-.1 2.1-.1s1.8 0 3.2 0c11.6 0 20 1.4 25.2 4.1s7.8 7.1 7.8 13.1c0 4.7-2.1 8.4-6.4 11.2s-10.1 4.3-17.7 4.5c8.2.4 14.5 2.2 18.9 5.2 4.2 2.7 6.7 7.4 6.5 12.4 0 6.3-2.9 11-8.6 14s-14.6 4.5-26.5 4.4h-2.3c-.9.1-1.7 0-2.2 0zm75.2.1h-28.5v-6l34.7-63h28.3v6.1zm2.2-69-3.1 6c-3.3.1-6.6.7-9.7 2-2.5 1.1-4.6 2.8-6.1 5-.8 1.3-1.5 2.6-2.1 4-1.1 2.5-2.4 3.7-3.9 3.7-1.2.1-2.3-.4-2.9-1.4-.5-.9-.8-2.7-.8-5.3v-14zm1.7 69 3.5-6.4c3.6-.1 7.1-.8 10.5-2.2 2.7-1.1 5-2.9 6.7-5.3.9-1.4 1.7-2.8 2.3-4.3 1.2-2.8 2.6-4.2 4.4-4.2 1.2-.1 2.5.4 3.2 1.5.6.9.9 2.9.9 6v15h-31.5zm75-11.4v2c0 1.5 1.2 2.6 3.6 3.3l.4.1c1.1.2 2.2.7 3.1 1.4.6.5.9 1.2.8 2 .1.9-.5 1.7-1.3 2.1-1.6.5-3.2.7-4.9.6h-31.9c-1.4.1-2.7-.1-4-.6-.8-.4-1.2-1.3-1.2-2.2 0-1.4 1-2.4 3.1-3.2.5-.2.8-.3 1.1-.4.7-.2 1.4-.7 1.9-1.3.4-.9.6-2 .5-3v-47.7c.1-1-.1-2.1-.5-3-.5-.6-1.1-1.1-1.9-1.3-.2-.1-.6-.2-1.1-.4-2.1-.7-3.1-1.8-3.1-3.1-.1-.9.4-1.8 1.2-2.2 1.3-.5 2.6-.7 4-.6h30.2zm4.1-57.6h26.3v18.3c0 .9-.3 1.7-.9 2.3-.7.6-1.6.9-2.5.9-1.8 0-3.4-1.3-4.7-4-.6-1.4-1.4-2.7-2.3-3.9-1.8-2.1-4.1-3.8-6.7-4.9-2.9-1.3-6-2-9.2-2.2zm0 36.7v-6.3c1.4-.3 2.8-.8 4.1-1.5 1-.6 1.7-1.5 2.2-2.5.4-.8 1-1.8 1.5-3.1 1-2.2 2.3-3.3 4-3.3 1-.1 2 .3 2.6 1.1.7 1.3.9 2.7.8 4.1v17.3c.1 1.3-.2 2.6-.8 3.8-.6.8-1.6 1.2-2.6 1.1-1.7 0-3-1.1-4-3.3-.6-1.2-1-2.2-1.5-3-.5-1.1-1.3-2-2.3-2.6-1.3-1-2.6-1.5-4-1.8zm38 32.3c-1 .1-1.9-.1-2.8-.5-.6-.3-.9-1-.8-1.6 0-1 .7-1.8 2.2-2.4l.8-.3c.5-.2 1-.5 1.3-1 .3-.7.4-1.5.3-2.2v-36c.1-.8-.1-1.5-.3-2.2-.3-.5-.8-.8-1.3-1l-.8-.3c-1.5-.5-2.2-1.3-2.2-2.3-.1-.7.3-1.3.8-1.7.9-.4 1.9-.6 2.8-.5h22.5c1-.1 1.9.1 2.8.5.6.4.9 1 .8 1.7 0 1-.7 1.8-2.2 2.3l-.8.3c-.5.2-1 .5-1.3 1-.3.7-.4 1.5-.3 2.2v44zm24.2 0v-4.8c2.3-.1 4.5-.7 6.5-1.8 1.9-1.1 3.4-2.6 4.5-4.5.7-1.3 1.2-2.6 1.7-3.9.8-2.2 1.7-3.2 2.9-3.2.9-.1 1.7.3 2.2 1 .4.7.6 2.3.6 4.9v12.3zm42.8-34.7-8 24c-.1.4-.3.7-.3 1.1-.1.3-.1.7-.1 1.1 0 .7.2 1.5.7 2 .5.6 1.2 1.1 1.9 1.3.3.1.7.3 1.2.5 1.6.6 2.3 1.3 2.3 2.4 0 .7-.4 1.4-1.1 1.7-1.1.4-2.3.6-3.5.6h-11.3c-1.2.1-2.3-.1-3.4-.5-.7-.3-1-1-1-1.7 0-1.1.9-1.9 2.8-2.4.6-.1 1.1-.3 1.6-.5 1-.5 1.9-1.1 2.6-2 .8-1.1 1.4-2.3 1.8-3.6l11.1-32.9zm9.3 21.8h-13.5l1.9-5.3h10.1l-9-29.4 1.5-4.4h19.4l13.5 43.9c.1.3.2.6.3.9.1.2.1.4.2.6 0 .7.8 1.4 2.5 2 1.6.6 2.5 1.4 2.5 2.3.1.8-.4 1.5-1 1.8-1.4.4-2.8.6-4.2.5h-21.1c-1.4.1-2.7-.1-4-.6-.7-.3-1.2-1.1-1.1-1.9 0-.8.6-1.5 1.9-2.1s1.9-1.3 1.9-2c0-.2 0-.3-.1-.5 0-.2-.1-.5-.2-.8zm56.8 8.7v4.2c-8.7-.7-15.4-3.3-20.1-7.8s-7.2-10.6-7.2-18.2 2.4-13.6 7.1-18.1c4.8-4.5 11.5-7.1 20.2-7.9v4.3c-1.3 0-2.6.6-3.4 1.6-.6.9-.9 2.5-.9 5v30.2c0 2.5.3 4.1.9 5 .8 1.1 2 1.7 3.4 1.7zm2.7 4.2v-4.4c1.1 0 2.2-.3 3-1 .6-.9.9-1.9.8-3v-10.9c.1-.6-.1-1.2-.3-1.8-.4-.4-.9-.6-1.4-.8l-.8-.2c-1.7-.5-2.5-1.3-2.5-2.4-.1-.6.3-1.3.9-1.5 1-.4 2.1-.5 3.2-.4h20c.9-.1 1.9.1 2.7.5.6.3.9.9.9 1.6 0 .5-.1.9-.4 1.3-.4.4-.9.8-1.5 1-.4.2-.7.4-1 .8-.2.5-.3 1-.3 1.5v12.6c-3.4 2.3-7.1 4.1-11 5.3-3.9 1.1-8.1 1.7-12.3 1.8zm23-36.8v.8c.1 1.1-.2 2.1-.8 3-.8.7-1.8 1-2.8.9-1.8 0-3.3-1.3-4.5-3.9-.7-1.6-1.6-3.2-2.6-4.6-1.5-2-3.4-3.8-5.6-5-2.1-1.2-4.4-1.8-6.7-1.9v-4.5c3 .2 5.9.7 8.8 1.5 1.7.5 3.5 1 5.2 1.2.9-.1 1.8-.6 2.5-1.3.9-.8 2.1-1.3 3.3-1.3.9-.1 1.7.1 2.5.5.6.6.8 1.5.7 2.3zm-426.2-2.5h-36.2l.2.9c.2 2.7.2 5.3 0 8l-.2.8h36.2zm-6.5-26.2-3.6-3.5h-71.7l-3.4 3.5v9.6l3.2 3.3h2.8c1.4-2.5 4.4-4.6 6.2-6.8h44.3l5.9 6.4c3.2.1 9.1.3 12.9.4l3.3-3.2zm0 52.6-3.5-3.5-12.7.4c-2 2.2-3.7 3.9-5.9 6.3h-44.4l-5.9-6.3c-.4-.8-2.1-.3-2.9-.4l-3.4 3.5v9.7l3.2 3.2h72.1l3.3-3.2v-9.7zm-19.8-38.6-4.1-4.2h-40.9l-4 4v4.9h-4.1v9.2h4.1v8.2h-3.9v7.2h3.9v5l3.9 3.9h41.1l4-4v-8.7h-11.5l-2.3 2.2c-4.2 4.2-4.6 4.3-17.3 4.3h-9.8l-1.8-1.8v-26.3l1.8-1.8 10.2.1c9.8.1 10.3.1 11.6.6 2.2.9 4.2 2.3 5.7 4.1l1.7 1.8h11.6zm-13 16.6c0-1-.2-1.9-.4-2.9-.9-2.9-2.9-5.4-5.5-6.8-2.6-1.3-4-1.4-12.5-1.4h-7.7v22.9h8.3c8.8 0 9.1 0 11.6-1.2 2.3-1.3 4.1-3.3 5.3-5.7.6-1.5.9-3.2.9-4.9z"/></svg>