<svg enable-background="new 0 0 840 340" viewBox="0 0 840 340" xmlns="http://www.w3.org/2000/svg"><path d="m59.6 215.9v-49.5c0-7.1-1-12.2-3-15.3s-5.6-4.7-10.8-4.7c-3.8 0-7.3 1.3-10.5 3.9s-5.3 5.9-6.4 10v55.6h-22.6v-121.9h22.7v44.6h.7c2.8-3.7 6.2-6.7 10.3-8.9s9.2-3.3 15.5-3.3c4.4 0 8.3.6 11.7 1.7 3.4 1.2 6.2 3.1 8.5 5.8s4 6.3 5 10.9c1.1 4.6 1.7 10.3 1.7 17v54.2z"/><path d="m100 104.3c0-3.4 1.3-6.2 3.7-8.6 2.5-2.4 5.9-3.6 10.4-3.6s8 1.2 10.7 3.6 4.1 5.3 4.1 8.6-1.4 6.2-4.1 8.5-6.3 3.4-10.7 3.4-7.9-1.1-10.4-3.4c-2.4-2.3-3.7-5.1-3.7-8.5zm3.3 24.5h22.7v87.1h-22.6v-87.1z"/><path d="m221.8 215.9c0 12.7-3.4 22-10.3 28-6.8 6-16.4 9-28.7 9-8.3 0-15-.6-19.8-1.7s-8.5-2.4-10.9-3.7l4.7-18c2.7 1 5.8 2.1 9.3 3.1s7.9 1.6 13.2 1.6c7.9 0 13.3-1.7 16.1-5.1s4.3-8.2 4.3-14.4v-5.6h-.7c-4.1 5.5-11.3 8.2-21.6 8.2-11.3 0-19.6-3.5-25.2-10.5-5.5-7-8.3-17.9-8.3-32.7s3.7-27.3 11.2-35.4c7.4-8 18.2-12 32.4-12 7.4 0 14.1.5 19.9 1.6 5.9 1 10.6 2.3 14.4 3.7zm-38.3-16.7c4.4 0 7.8-1 10.2-3s4.2-4.9 5.5-8.9v-39.2c-3.6-1.5-8.1-2.3-13.4-2.3-5.8 0-10.3 2.2-13.6 6.5-3.2 4.4-4.9 11.3-4.9 20.8 0 8.5 1.4 14.9 4.2 19.3 2.7 4.6 6.7 6.8 12 6.8z"/><path d="m294.8 215.9v-49.5c0-7.1-1-12.2-3-15.3s-5.6-4.7-10.8-4.7c-3.8 0-7.3 1.3-10.5 3.9s-5.3 5.9-6.4 10v55.6h-22.6v-121.9h22.6v44.6h.7c2.8-3.7 6.2-6.7 10.3-8.9s9.2-3.3 15.5-3.3c4.4 0 8.3.6 11.7 1.7 3.4 1.2 6.2 3.1 8.5 5.8s4 6.3 5 10.9c1.1 4.6 1.7 10.3 1.7 17v54.2z"/><path d="m359.8 186.7c0 4.1.5 7 1.6 8.9 1 1.9 2.7 2.8 5 2.8 1.4 0 2.8-.1 4.1-.4 1.3-.2 3-.8 5-1.6l2.4 17.8c-1.9.9-4.7 1.9-8.5 2.8s-7.8 1.4-11.8 1.4c-6.6 0-11.7-1.5-15.1-4.6-3.5-3.1-5.2-8.2-5.2-15.3v-104.5h22.6z"/><path d="m386.4 104.3c0-3.4 1.3-6.2 3.7-8.6 2.5-2.4 5.9-3.6 10.4-3.6 4.4 0 8 1.2 10.7 3.6s4.1 5.3 4.1 8.6-1.4 6.2-4.1 8.5-6.3 3.4-10.7 3.4-7.9-1.1-10.4-3.4-3.7-5.1-3.7-8.5zm3.3 24.5h22.6v87.1h-22.6z"/><path d="m508.1 215.9c0 12.7-3.4 22-10.3 28-6.8 6-16.4 9-28.7 9-8.3 0-15-.6-19.8-1.7s-8.5-2.4-10.9-3.7l4.7-18c2.7 1 5.8 2.1 9.3 3.1s7.9 1.6 13.2 1.6c7.9 0 13.3-1.7 16.1-5.1s4.3-8.2 4.3-14.4v-5.6h-.7c-4.1 5.5-11.3 8.2-21.6 8.2-11.3 0-19.6-3.5-25.2-10.5s-8.3-17.9-8.3-32.7 3.7-27.3 11.2-35.4c7.4-8 18.2-12 32.4-12 7.4 0 14.1.5 19.9 1.6 5.9 1 10.6 2.3 14.4 3.7zm-38.3-16.7c4.4 0 7.8-1 10.2-3s4.2-4.9 5.5-8.9v-39.2c-3.6-1.5-8.1-2.3-13.4-2.3-5.8 0-10.3 2.2-13.6 6.5-3.2 4.4-4.9 11.3-4.9 20.8 0 8.5 1.4 14.9 4.2 19.3 2.7 4.6 6.8 6.8 12 6.8z"/><path d="m581.1 215.9v-49.5c0-7.1-1-12.2-3-15.3s-5.6-4.7-10.8-4.7c-3.8 0-7.3 1.3-10.5 3.9s-5.3 5.9-6.4 10v55.6h-22.6v-121.9h22.6v44.6h.7c2.8-3.7 6.2-6.7 10.3-8.9s9.2-3.3 15.5-3.3c4.4 0 8.3.6 11.7 1.7 3.4 1.2 6.2 3.1 8.5 5.8s4 6.3 5 10.9c1.1 4.6 1.7 10.3 1.7 17v54.2z"/><path d="m613.7 128.8h12v-16.4l22.6-6.4v22.8h21.3v19.2h-21.3v33.5c0 6 .6 10.4 1.8 13s3.5 3.9 6.9 3.9c2.3 0 4.3-.2 6-.7s3.6-1.1 5.7-2.1l4 17.4c-3.1 1.5-6.8 2.8-11 3.8s-8.4 1.6-12.7 1.6c-8 0-13.9-2.1-17.7-6.2s-5.7-10.9-5.7-20.3v-43.9h-12v-19.2z"/><path d="m682.7 204.5c0-4.1 1.3-7.3 3.8-9.7 2.6-2.4 5.9-3.6 10.1-3.6 4.4 0 7.9 1.2 10.5 3.6s3.8 5.6 3.8 9.7-1.3 7.3-3.8 9.8c-2.6 2.4-6 3.7-10.5 3.7-4.2 0-7.6-1.2-10.1-3.7-2.6-2.5-3.8-5.8-3.8-9.8z"/><path d="m730.2 128.8h22.6v90.8c0 10.6-2.1 18.6-6.3 24.2s-10.9 8.3-20 8.3c-3.5 0-7.2-.4-11.2-1.2v-19c.5 0 .9 0 1.2.1.4.1.7.1 1 .1 5.2 0 8.6-1.7 10.2-5 1.6-3.4 2.3-8 2.3-13.9zm-2.9-24.5c0-3.4 1.3-6.2 3.7-8.6 2.5-2.4 5.9-3.6 10.4-3.6 4.4 0 8 1.2 10.7 3.6s4.1 5.3 4.1 8.6-1.4 6.2-4.1 8.5-6.3 3.4-10.7 3.4-7.9-1.1-10.4-3.4-3.7-5.1-3.7-8.5z"/><path d="m810.9 191.9c0-2.3-1-4.2-3-5.6s-4.4-2.7-7.3-3.8-6.1-2.3-9.6-3.6c-3.5-1.2-6.7-2.9-9.6-5s-5.3-4.9-7.3-8.2-3-7.6-3-12.8c0-8.6 2.6-15.1 7.7-19.7 5.1-4.5 12.5-6.8 22.1-6.8 6.6 0 12.6.7 18 2.1 5.3 1.4 9.5 3 12.6 4.7l-5 16.4c-2.7-1-6-2.2-10.1-3.3s-8.2-1.7-12.4-1.7c-6.7 0-10.1 2.6-10.1 7.8 0 2.1 1 3.8 3 5 2 1.3 4.4 2.5 7.3 3.6s6.1 2.3 9.6 3.6 6.7 2.9 9.6 5c2.9 2 5.3 4.7 7.3 7.9s2.9 7.4 2.9 12.6c0 8.8-2.8 15.8-8.5 20.8-5.6 5-14.1 7.6-25.3 7.6-6.2 0-11.9-.8-17.3-2.3-5.4-1.6-9.8-3.4-13.2-5.5l6.3-16.9c2.7 1.5 6.2 3 10.6 4.4s8.9 2.2 13.6 2.2c3.4 0 6.1-.6 8.1-1.9 1.9-1.4 3-3.5 3-6.6z"/></svg>