<svg enable-background="new 0 0 850 340" viewBox="0 0 850 340" xmlns="http://www.w3.org/2000/svg"><path d="m693 340c-4.9 0-9.8-.9-14.4-2.7-19.5-7.4-29.7-28.6-24.4-48.1l-.2-.1 1.3-3.4 98.9-256.9c1.5-3.8.8-12.8.1-17.9-.2-1.2-.2-2.3.1-3.4l.1-.2c.1-.2.1-.4.2-.6 1.6-4.2 6.4-6.2 14.3-6.2 9.5 0 22.6 3 36.1 8.1 11.3 4.3 21.5 9.8 28.8 15.2 8.5 6.4 11.9 12.2 10 17.1-.1.2-.2.4-.3.6l-.1.2c-.5 1-1.2 1.8-2.1 2.5-4.3 3.9-10.8 10.4-11.9 13.3l-100.2 260.6-.2-.1c-7 13.4-20.7 22-36.1 22zm-31-52.6-.3.7c-6.3 17 2.3 36.2 19.3 42.7 3.9 1.5 7.8 2.2 11.9 2.2 13.7 0 25.9-8.2 30.9-21l.4-.9 98.4-255.8c2.1-5.5 11.9-14.3 13.8-16.1l.2-.2c.2-.1.3-.2.3-.3l.1-.1c.1-.7-.8-3.8-7.7-9.1-6.6-5-16.2-10.1-27-14.2-12.5-4.8-25.1-7.7-33.6-7.7-5.6 0-7.5 1.2-7.8 1.8v.1.4.1c.2 1.5 2.1 14.6-.5 21.4z"/><path d="m788.6 124.7s-13.6 15.7-26.1 21.3-21.6 4.2-32.8 10.7-16.8 15.6-16.8 15.6l-45.5 118.3c-4.9 13.3 2.4 29 15.9 34.2s28.9-1.7 34.1-14.9zm-45.7 68.3c2.2-1 4.7 0 5.6 2.2 1 2.2 0 4.7-2.2 5.6-2.2 1-4.7 0-5.6-2.2-1.1-2.2 0-4.7 2.2-5.6zm-18.3-19.5c1.5-.6 3.2 0 3.8 1.5s0 3.2-1.5 3.8-3.2 0-3.8-1.5.1-3.2 1.5-3.8zm-20.1 66.9c-2.2 1-4.7 0-5.6-2.2-1-2.2 0-4.7 2.2-5.6 2.2-1 4.7 0 5.6 2.2 1.1 2.1.1 4.6-2.2 5.6zm4.1-15.5c-1.8-4.1 0-8.8 4.1-10.7 4.1-1.8 8.8 0 10.7 4.1 1.8 4.1 0 8.8-4.1 10.7-4.2 1.7-8.9-.1-10.7-4.1zm10.3 41c1.5-.6 3.2 0 3.8 1.5s0 3.2-1.5 3.8-3.2 0-3.8-1.5c-.6-1.4 0-3.1 1.5-3.8z"/><ellipse cx="797.8" cy="26.6" rx="7.2" ry="27.5" transform="matrix(.359 -.9333 .9333 .359 486.5082 761.689)"/><path d="m195.9 157.5c4.3 3.5 12.3 1.5 17.6-4.3 5.5-6.1 6.4-13.9 2.1-17.5-4.3-3.5-12.3-1.5-17.6 4.6-5.7 6.2-6.7 13.7-2.1 17.2zm-13 11.4c-1.2 0-3.2 2.1-1.5 2.9 2.4.9 3.5 2.9 3.5 5.8-2.1 12-16.9 25.7-22.8 30.3-1.5 1.5.6 4.6 2.1 3.5 3.2-2.6 9.9-7.8 15.4-14.8-9 20.2-26.6 46-33.3 55.1-26.3 36.5-66.2 70-93.7 70-21.9 0-40.5-14.8-44.6-36.8-.3-2.4-3.5-2.9-2.9.3 4.9 30 28.1 41.6 56 41.6 30.6 0 66.6-22.2 86.4-44.9 32-36.8 52.9-78.9 47.2-102.9-2.1-9-8.3-10.4-11.8-10.1zm196.8 79.9c8.4-2.1 15.4-6.7 15.4-14 0-.7-1.5-.7-1.5 0 0 4.3-4.9 7.9-10.5 8.8-13 2.1-39-13.3-51.3-29.1 13 4.9 39.9-2.3 52.6-11.3 11.7-8.4 16.3-17.8 17.3-25.4 1.5-12.5-12.3-19.9-31.2-12.5-12.3 4.9-26.9 15.7-42 35.9 16-26.6 47.5-69.7 78.5-97.3 37.6-33.5 59.5-27.1 25.7 8.4-13.9 14.5-40.2 33.5-58.4 41.7-5.5 2.4-2.9 5.5 1.2 3.8 19.3-8.4 44.9-26 60.4-40.5 45.7-44 7.6-77.2-43.2-30.6-34.4 31.8-56.9 65-76.4 108.1-6.7 8.1-11.7 14.8-17.9 20.2-.7.6-1.3 1.3-1.8 1.9-16.8 14.4-43.3 33.9-59.8 34.2-11.7.3-16.6-8.4-14.5-19.9 3.2-17.8 21.6-38.7 37.4-46 20.5-9.3 32.4 8.7 5.5 23.3-10.2 5.2-22.5 8.1-27.5 8.1-5.8 0-5.2 2.4-.3 2.6 8.1.3 21.3-3.2 30-7.3 27.5-13 29.1-37.5-.6-38.4-32.4-1.2-71.1 26.6-70.8 61.3.3 15.7 12.8 24.2 30 24.2 28.7-.3 54.2-22.1 75.1-41.2 3-2.5 5.9-5.2 8.8-8.1-7.3 18.7-11.1 35.9-9.3 48.6 1.2 9.3 6.4 13.6 10.5 17.2.9.6 2.6 0 1.5-1.8-6.1-7.3-4.3-29 4.1-49.8 7 13.5 34.4 31.3 63 24.9zm-34.3-60.8c33.5-30 46.6-3.2 25.4 13-11.1 8.4-33 14.8-39.9 10.8l-1.5-.9c-.9-1.5-1.8-2.9-2.4-4.3 5.5-6.7 11.9-12.7 18.4-18.6zm186-34c13.3 1.5 7.8-14.8-5.8-10.8-6.1 1.8-12 13.3-16.3 23.6-13.3 20.2-35.9 47.4-51.7 61.8-13.9 12-26.9 15.1-11.1-7.3 6.4-9 14.5-18.7 19.3-28.3 11.1-24.2-12.5-35-31.5-20.5-11.1 8.4-26 26-37.6 35.6-3.2 2.6-2.4 6.4.9 3.8 9.3-7.5 25.7-24.8 39.6-35 11.7-9 16.3-3.2 9.6 4.3-9.3 10.8-25.7 29.4-29.7 41.4-5.8 17.8 1.2 25.7 12.7 25.7 16 0 39.9-25.1 56-44.9 5.2-6.7 11.1-14.5 16-22.1-13.9 27.1-28.6 54.5-46.6 79.2-25.7 35-57.8 61.3-88.1 61.3-21.9 0-40.8-14.8-44.9-36.8-.3-2.4-3.2-2.9-2.9.3 4.9 30 28.1 41.6 56 41.6 30.6 0 60.1-17.8 80.7-39.6 41.7-44.1 46.7-93.6 59.5-121.2 6-12.1 11.6-12.7 15.9-12.1zm169.6-42.5c6.1-10.5 5.8-18.7-8.4-18.7-10.8.3-30.3 7.8-39.3 14.8-2.1 2.1-1.2 3.2 1.5 2.1 1.8-.6 3.8-1.8 5.8-2.6 10.2-5.5 6.1 6.1 3.8 10.5-12.3 21.3-33.8 51.3-45.2 66.2-5.4 7.3-11.6 14.6-17.6 20.8-11 10.4-32.6 28.9-48.9 35-53.2 19.9 14.5-70.6 20.2-77.8 12.5-15.7 40.5-43.1 48.9-56.8 6.1-10.5 5.8-18.7-8.4-18.7-10.8.3-30.3 7.8-39.3 14.8-2.1 2.1-1.2 3.2 1.5 2.1 1.8-.6 3.8-1.8 5.8-2.6 10.2-5.5 6.1 6.1 3.8 10.5-12.3 21.3-33.8 51.3-45.2 66.2-9.3 12.5-20.8 25.1-29.4 32-3.5 2.9-1.5 5.5 2.1 3.2 3.2-2.1 7.8-6.7 13-12.3-9.6 19.3-17.6 46.3 7.8 49.5 21.6 3 47.3-19.2 63.9-35.5 1.8-1.8 3.9-3.8 5.9-5.9.5-.5 1-1 1.5-1.5-9.6 19.3-17.5 46.2 7.9 49.4 27.8 3.8 62.2-33.5 75.5-47.1 2.6-2.6 1.8-7-2.6-2.6-7.8 8.1-34.4 32.3-53.8 39.6-53.2 19.9 14.5-70.6 20.2-77.8 12.5-15.6 40.6-43 49-56.8z"/></svg>