<svg enable-background="new 0 0 840 340" viewBox="0 0 840 340" xmlns="http://www.w3.org/2000/svg"><path d="m199.8 225.6c-2.3.2-4.5-.2-6.6-1.1-1.3-.6-2.1-2.1-1.9-3.6 0-2.3 1.8-3.9 5.2-5l1.8-.6c1.3-.3 2.3-1.1 3.1-2.1.6-1.5 1-3.2.8-4.9v-76.8c.2-1.6-.2-3.4-.8-4.9-.8-1-1.9-1.8-3.1-2.1-.3-.2-1-.3-1.8-.6-3.4-1.1-5.2-2.7-5.2-4.9-.2-1.5.6-2.9 1.9-3.6 2.1-.8 4.4-1.1 6.6-1h50.6v111.2zm56.9 0v-9.6c5.7-.2 9.5-1.1 11.8-3.2s3.4-5.7 3.4-10.7v-16.1c0-5-1.1-8.6-3.4-10.7s-6.1-3.1-11.6-3.2v-9.4c5.5-.2 9.4-1.1 11.6-3.2 2.3-2.1 3.4-5.7 3.4-10.7v-10.8c0-5-1.1-8.7-3.4-10.7-2.3-2.1-6.1-3.2-11.8-3.2v-9.7c1.1 0 2.3-.2 3.4-.2s2.9 0 5.2 0c18.8 0 32.3 2.3 40.7 6.6s12.6 11.5 12.6 21.2c0 7.6-3.4 13.6-10.3 18.1-7 4.5-16.3 7-28.6 7.3 13.3.6 23.4 3.6 30.6 8.4 6.8 4.4 10.8 12 10.5 20 0 10.2-4.7 17.8-13.9 22.6-9.2 4.9-23.6 7.3-42.8 7.1h-3.7c-1.6.2-2.9.1-3.7.1zm121.6.1h-46.1v-9.7l56.1-101.9h45.7v9.9zm3.5-111.5-5 9.7c-5.3.2-10.7 1.1-15.7 3.2-4 1.8-7.4 4.5-9.9 8.1-1.3 2.1-2.4 4.2-3.4 6.5-1.8 4-3.9 6-6.3 6-1.9.2-3.7-.6-4.7-2.3-.8-1.5-1.3-4.4-1.3-8.6v-22.6zm2.8 111.5 5.7-10.3c5.8-.2 11.5-1.3 17-3.6 4.4-1.8 8.1-4.7 10.8-8.6 1.5-2.3 2.7-4.5 3.7-7 1.9-4.5 4.2-6.8 7.1-6.8 1.9-.2 4 .6 5.2 2.4 1 1.5 1.5 4.7 1.5 9.7v24.3h-50.9zm121.2-18.4v3.2c0 2.4 1.9 4.2 5.8 5.3l.6.2c1.8.3 3.6 1.1 5 2.3 1 .8 1.5 1.9 1.3 3.2.2 1.5-.8 2.7-2.1 3.4-2.6.8-5.2 1.1-7.9 1h-51.5c-2.3.2-4.4-.2-6.5-1-1.3-.6-1.9-2.1-1.9-3.6 0-2.3 1.6-3.9 5-5.2.8-.3 1.3-.5 1.8-.6 1.1-.3 2.3-1.1 3.1-2.1.6-1.5 1-3.2.8-4.9v-77.1c.2-1.6-.2-3.4-.8-4.9-.8-1-1.8-1.8-3.1-2.1-.3-.2-1-.3-1.8-.6-3.4-1.1-5-2.9-5-5-.2-1.5.6-2.9 1.9-3.6 2.1-.8 4.2-1.1 6.5-1h48.8zm6.6-93.1h42.6v29.6c0 1.5-.5 2.7-1.5 3.7-1.1 1-2.6 1.5-4 1.5-2.9 0-5.5-2.1-7.6-6.5-1-2.3-2.3-4.4-3.7-6.3-2.9-3.4-6.6-6.1-10.8-7.9-4.7-2.1-9.7-3.2-14.9-3.6zm0 59.3v-10.2c2.3-.5 4.5-1.3 6.6-2.4 1.6-1 2.7-2.4 3.6-4 .6-1.3 1.6-2.9 2.4-5 1.6-3.6 3.7-5.3 6.5-5.3 1.6-.2 3.2.5 4.2 1.8 1.1 2.1 1.5 4.4 1.3 6.6v28c.2 2.1-.3 4.2-1.3 6.1-1 1.3-2.6 1.9-4.2 1.8-2.7 0-4.9-1.8-6.5-5.3-1-1.9-1.6-3.6-2.4-4.9-.8-1.8-2.1-3.2-3.7-4.2-2.1-1.7-4.2-2.5-6.5-3zm61.5 52.2c-1.6.2-3.1-.2-4.5-.8-1-.5-1.5-1.6-1.3-2.6 0-1.6 1.1-2.9 3.6-3.9l1.3-.5c.8-.3 1.6-.8 2.1-1.6.5-1.1.6-2.4.5-3.6v-58.2c.2-1.3-.2-2.4-.5-3.6-.5-.8-1.3-1.3-2.1-1.6l-1.3-.5c-2.4-.8-3.6-2.1-3.6-3.7-.2-1.1.5-2.1 1.3-2.7 1.5-.6 3.1-1 4.5-.8h36.4c1.6-.2 3.1.2 4.5.8 1 .6 1.5 1.6 1.3 2.7 0 1.6-1.1 2.9-3.6 3.7l-1.3.5c-.8.3-1.6.8-2.1 1.6-.5 1.1-.6 2.4-.5 3.6v71.1h-34.7zm39.1 0v-7.7c3.7-.2 7.3-1.1 10.5-2.9 3.1-1.8 5.5-4.2 7.3-7.3 1.1-2.1 1.9-4.2 2.7-6.3 1.3-3.6 2.7-5.2 4.7-5.2 1.5-.2 2.7.5 3.6 1.6.6 1.1 1 3.7 1 7.9v19.9zm69.2-56.1-12.9 38.8c-.2.6-.5 1.1-.5 1.8-.2.5-.2 1.1-.2 1.8 0 1.1.3 2.4 1.1 3.2.8 1 1.9 1.8 3.1 2.1.5.2 1.1.5 1.9.8 2.6 1 3.7 2.1 3.7 3.9 0 1.1-.6 2.3-1.8 2.7-1.8.6-3.7 1-5.7 1h-18.3c-1.9.2-3.7-.2-5.5-.8-1.1-.5-1.6-1.6-1.6-2.7 0-1.8 1.5-3.1 4.5-3.9 1-.2 1.8-.5 2.6-.8 1.6-.8 3.1-1.8 4.2-3.2 1.3-1.8 2.3-3.7 2.9-5.8l17.9-53.2zm15 35.3h-21.8l3.1-8.6h16.3l-14.6-47.5 2.4-7.1h31.4l21.8 71c.2.5.3 1 .5 1.5.2.3.2.6.3 1 0 1.1 1.3 2.3 4 3.2 2.6 1 4 2.3 4 3.7.2 1.3-.6 2.4-1.6 2.9-2.3.6-4.5 1-6.8.8h-34.1c-2.3.2-4.4-.2-6.5-1-1.1-.5-1.9-1.8-1.8-3.1 0-1.3 1-2.4 3.1-3.4s3.1-2.1 3.1-3.2c0-.3 0-.5-.2-.8 0-.3-.2-.8-.3-1.3zm91.9 14v6.8c-14.1-1.1-24.9-5.3-32.5-12.6s-11.6-17.1-11.6-29.4 3.9-22 11.5-29.3c7.8-7.3 18.6-11.5 32.7-12.8v7c-2.1 0-4.2 1-5.5 2.6-1 1.5-1.5 4-1.5 8.1v48.8c0 4 .5 6.6 1.5 8.1 1.2 1.8 3.1 2.7 5.4 2.7zm4.3 6.8v-7.1c1.8 0 3.6-.5 4.9-1.6 1-1.5 1.5-3.1 1.3-4.9v-17.6c.2-1-.2-1.9-.5-2.9-.6-.6-1.5-1-2.3-1.3l-1.3-.3c-2.7-.8-4-2.1-4-3.9-.2-1 .5-2.1 1.5-2.4 1.6-.6 3.4-.8 5.2-.6h32.3c1.5-.2 3.1.2 4.4.8 1 .5 1.5 1.5 1.5 2.6 0 .8-.2 1.5-.6 2.1-.6.6-1.5 1.3-2.4 1.6-.6.3-1.1.6-1.6 1.3-.3.8-.5 1.6-.5 2.4v20.4c-5.5 3.7-11.5 6.6-17.8 8.6-6.5 1.7-13.3 2.7-20.1 2.8zm37.2-59.5v1.3c.2 1.8-.3 3.4-1.3 4.9-1.3 1.1-2.9 1.6-4.5 1.5-2.9 0-5.3-2.1-7.3-6.3-1.1-2.6-2.6-5.2-4.2-7.4-2.4-3.2-5.5-6.1-9.1-8.1-3.4-1.9-7.1-2.9-10.8-3.1v-7.3c4.9.3 9.5 1.1 14.2 2.4 2.7.8 5.7 1.6 8.4 1.9 1.5-.2 2.9-1 4-2.1 1.5-1.3 3.4-2.1 5.3-2.1 1.5-.2 2.7.2 4 .8 1 1 1.3 2.4 1.1 3.7v19.9zm-689-4h-58.6l.3 1.5c.3 4.4.3 8.6 0 12.9l-.3 1.3h58.5v-15.7zm-10.5-42.4-5.8-5.7h-116l-5.5 5.7v15.5l5.2 5.3h4.5c2.3-4 7.1-7.4 10-11h71.6l9.5 10.3c5.2.2 14.7.5 20.9.6l5.3-5.2zm0 85.1-5.7-5.7-20.5.6c-3.2 3.6-6 6.3-9.5 10.2h-71.9l-9.5-10.1c-.6-1.3-3.4-.5-4.7-.6l-5.5 5.7v15.7l5.2 5.2h116.6l5.3-5.2v-15.7h.2zm-32.1-62.4-6.6-6.8h-66.1l-6.5 6.5v7.9h-6.6v14.9h6.6v13.3h-6.3v11.6h6.3v8.1l6.3 6.3h66.4l6.5-6.5v-14.1h-18.6l-3.7 3.6c-6.8 6.8-7.4 7-28 7h-15.8l-2.9-2.9v-42.5l2.9-2.9 16.5.2c15.8.2 16.7.2 18.8 1 3.6 1.5 6.8 3.7 9.2 6.6l2.7 2.9h18.8zm-21 26.8c0-1.6-.3-3.1-.6-4.7-1.5-4.7-4.7-8.7-8.9-11-4.2-2.1-6.5-2.3-20.2-2.3h-12.5v37h13.4c14.2 0 14.7 0 18.8-1.9 3.7-2.1 6.6-5.3 8.6-9.2.9-2.4 1.4-5.1 1.4-7.9z"/></svg>