<svg viewBox="0 -1 100 50" xmlns="http://www.w3.org/2000/svg"><path d="m7.579 10.123h14.204c4.169.035 7.19 1.237 9.063 3.604s2.491 5.6 1.855 9.699c-.247 1.873-.795 3.71-1.643 5.512-.813 1.802-1.943 3.427-3.392 4.876-1.767 1.837-3.657 3.003-5.671 3.498s-4.099.742-6.254.742h-6.36l-2.014 10.07h-7.367zm6.201 6.042-3.18 15.9c.212.035.424.053.636.053h.742c3.392.035 6.219-.3 8.48-1.007 2.261-.742 3.781-3.321 4.558-7.738.636-3.71 0-5.848-1.908-6.413-1.873-.565-4.222-.83-7.049-.795-.424.035-.83.053-1.219.053-.353 0-.724 0-1.113 0z"/><path d="m41.093 0h7.314l-2.067 10.123h6.572c3.604.071 6.289.813 8.056 2.226 1.802 1.413 2.332 4.099 1.59 8.056l-3.551 17.649h-7.42l3.392-16.854c.353-1.767.247-3.021-.318-3.763s-1.784-1.113-3.657-1.113l-5.883-.053-4.346 21.783h-7.314z"/><path d="m70.412 10.123h14.204c4.169.035 7.19 1.237 9.063 3.604s2.491 5.6 1.855 9.699c-.247 1.873-.795 3.71-1.643 5.512-.813 1.802-1.943 3.427-3.392 4.876-1.767 1.837-3.657 3.003-5.671 3.498s-4.099.742-6.254.742h-6.36l-2.014 10.07h-7.367zm6.201 6.042-3.18 15.9c.212.035.424.053.636.053h.742c3.392.035 6.219-.3 8.48-1.007 2.261-.742 3.781-3.321 4.558-7.738.636-3.71 0-5.848-1.908-6.413-1.873-.565-4.222-.83-7.049-.795-.424.035-.83.053-1.219.053-.353 0-.724 0-1.113 0z"/></svg>