<svg enable-background="new 0 0 840 340" viewBox="0 0 840 340" xmlns="http://www.w3.org/2000/svg"><path d="m268.1 110.6h58.7c17.2.1 29.7 5.1 37.4 14.8 7.8 9.8 10.3 23.1 7.6 40.1-1.1 7.8-3.3 15.4-6.8 22.7-3.3 7.5-8 14.2-14 20.2-7.4 7.6-15.1 12.4-23.4 14.4s-17 3.1-25.8 3.1h-26.2l-8.3 41.6h-30.5zm25.7 25-13.1 65.6c.9.1 1.7.3 2.7.3h3.1c14 .1 25.7-1.2 35-4.1 9.4-3.1 15.6-13.8 18.9-32 2.7-15.4 0-24.2-7.9-26.5-7.8-2.3-17.4-3.5-29.1-3.3-1.7.1-3.5.3-5.1.3-1.5 0-2.9 0-4.5 0z"/><path d="m406.5 68.9h30.2l-8.6 41.8h27.1c14.8.3 25.9 3.3 33.3 9.2 7.5 5.9 9.6 17 6.6 33.3l-14.7 72.9h-30.6l14-69.7c1.5-7.4 1.1-12.4-1.3-15.5-2.3-3.1-7.4-4.5-15.1-4.5l-24.3-.3-17.9 89.9h-30.2z"/><path d="m527.7 110.6h58.7c17.2.1 29.7 5.1 37.4 14.8s10.3 23.1 7.6 40.1c-1.1 7.8-3.3 15.4-6.8 22.7-3.3 7.5-8 14.2-14 20.2-7.4 7.6-15.1 12.4-23.4 14.4s-17 3.1-25.8 3.1h-26.2l-8.3 41.6h-30.5zm25.5 25-13.1 65.6c.9.1 1.7.3 2.7.3h3.1c14 .1 25.7-1.2 35-4.1 9.4-3.1 15.6-13.8 18.9-32 2.7-15.4 0-24.2-7.9-26.5-7.8-2.3-17.4-3.5-29.1-3.3-1.7.1-3.5.3-5.1.3-1.5 0-2.9 0-4.5 0z"/></svg>