<svg id="svg-stakx" xmlns="http://www.w3.org/2000/svg" viewBox="0 0 100 100">
    <path d="M41.5 45.4c-.5-1-1.3-1.9-2.4-2.5-1.1-.7-2.3-1-3.7-1-.6 0-1.3.1-1.9.2-.6.1-1.2.4-1.7.7s-.9.7-1.2 1.2-.5 1.1-.5 1.8c0 1.2.5 2.1 1.4 2.7 1 .6 2.5 1.1 4.5 1.6 2.9.6 5.1 1.5 6.5 2.6s2.1 2.7 2.1 4.6c0 1.4-.3 2.6-.8 3.6s-1.3 1.8-2.2 2.4-1.9 1.1-3 1.3-2.2.4-3.4.4c-1.9 0-3.7-.4-5.5-1.2-1.8-.8-3.2-2-4.4-3.7l2.9-2.1c.6 1.1 1.6 2 2.8 2.8 1.2.7 2.6 1.1 4.1 1.1.8 0 1.5-.1 2.2-.2.7-.1 1.3-.4 1.8-.7.5-.3 1-.8 1.3-1.3.3-.5.5-1.2.5-2 0-1.3-.6-2.3-1.9-2.9-1.2-.7-3.1-1.3-5.4-1.8-.7-.2-1.5-.4-2.4-.7-.8-.3-1.6-.7-2.3-1.2-.7-.5-1.3-1.2-1.8-1.9s-.7-1.8-.7-2.9c0-1.3.2-2.4.7-3.3.5-.9 1.2-1.7 2-2.2.8-.6 1.8-1 2.8-1.3 1.1-.3 2.2-.4 3.3-.4 1.7 0 3.4.4 5 1.2 1.6.8 2.8 1.9 3.7 3.3l-2.4 1.8zm21.6-2.9h-7V57c0 .9.1 1.7.3 2.3.2.6.4 1.1.8 1.4.3.3.7.6 1.2.7.5.1 1 .2 1.5.2s1-.1 1.6-.2 1.1-.3 1.6-.6l.2 3.1c-.6.2-1.3.4-2 .6s-1.4.2-2.2.2c-.7 0-1.4-.1-2.1-.3-.7-.2-1.4-.5-2.1-1-.6-.5-1.2-1.2-1.6-2-.4-.8-.6-2-.6-3.3V42.5h-5.2v-3h5.2v-7h3.6v7h7v3zm20 5.7c0-2.1-.6-3.7-1.7-4.8s-2.8-1.6-4.9-1.6c-1.5 0-2.9.3-4.1.8s-2.3 1.2-3.2 2.1l-2-2.4c1-1 2.4-1.9 4.1-2.5 1.7-.7 3.6-1 5.7-1 1.3 0 2.6.2 3.8.6s2.2.9 3.1 1.7c.9.7 1.6 1.7 2.1 2.8.5 1.1.7 2.5.7 4v10.9c0 1 0 2 .1 3s.2 1.9.3 2.6h-3.2c-.1-.6-.2-1.2-.3-2-.1-.7-.1-1.4-.1-2.1h-.1c-1.1 1.7-2.4 2.8-3.8 3.6S76.2 65 74.1 65c-.9 0-1.9-.1-2.9-.4-1-.3-1.9-.7-2.8-1.3-.8-.6-1.5-1.4-2.1-2.3-.6-1-.8-2.1-.8-3.5 0-1.9.5-3.4 1.5-4.5s2.3-2 3.9-2.5 3.5-.9 5.6-1.1c2.1-.2 4.3-.2 6.6-.2v-1zM82 51.9c-1.5 0-3 .1-4.5.2s-2.9.4-4.1.7c-1.2.4-2.2.9-3 1.6-.8.7-1.2 1.7-1.2 2.8 0 .9.2 1.6.5 2.2s.8 1.1 1.3 1.5 1.2.6 1.9.8 1.4.2 2.1.2c1.3 0 2.4-.2 3.4-.7 1-.4 1.8-1 2.5-1.8s1.2-1.6 1.5-2.6.5-2 .5-3.1v-1.8H82z"/>
    <path d="M24.9 78.2h.2L38.7 65h6.2L30 78.3l14.8 15.9h-6.3L25.1 78.8h-.2v15.4h-4.3V46.8h4.3v31.4zm31.2.9L44.8 64.9h5.5l8.4 11.2 8-11.2h5.2l-10.7 14 11.7 15.4h-5.5l-8.7-12.2L50 94.3h-5.2l11.3-15.2z"/>
    <path class="border" d="M1 1.1h97.9V99H1V1.1z"/>
</svg>