<svg xmlns="http://www.w3.org/2000/svg" viewBox="-199 201 100 100">
  <path d="M-180.7 275.2h63.1c3.6 0 6.5-2.9 6.5-6.5s-2.9-6.5-6.5-6.5h-63.1c-3.6 0-6.5 2.9-6.5 6.5 0 3.7 2.9 6.5 6.5 6.5zm11.7-17.7h39.9c3.6 0 6.5-2.9 6.5-6.5s-2.9-6.5-6.5-6.5h-39.8c-3.6 0-6.5 2.9-6.5 6.5-.2 3.4 2.8 6.5 6.4 6.5zm63.1 22.5h-86.3c-3.6 0-6.5 2.9-6.5 6.5s2.9 6.5 6.5 6.5h86.4c3.6 0 6.5-2.9 6.5-6.5 0-3.5-3-6.5-6.6-6.5zm-51.7-40.4h16.9c3.5-.1 6.4-3 6.4-6.5 0-3.6-2.9-6.5-6.5-6.5h-16.6c-3.6 0-6.5 2.9-6.5 6.5-.1 3.5 2.8 6.3 6.3 6.5zm11-28.2c0-1.4-1.1-2.5-2.5-2.5s-2.5 1.1-2.5 2.5v10.2h5.1v-10.2h-.1z"/>
</svg>
