<svg xmlns="http://www.w3.org/2000/svg" viewBox="0 0 774.8 774">
  <style>
    .st0{enable-background:new ;} .st1{fill-rule:evenodd;clip-rule:evenodd;fill:#647387;} .st2{fill:#647387;}
  </style>
  <g id="Shape_1_1_" class="st0">
    <path class="st1" d="M294.9 14.3l6 203.5 134.4 170.1 2.4-263z" id="Shape_1"/>
  </g>
  <g id="Shape_2_1_" class="st0">
    <path class="st2" d="M495.3 3.6l191.3 95.1-247.8 22.5-134.3-104L495.3 3.6M496 0L294.9 14.3 437.7 125l261.8-23.8L496 0z" id="Shape_2_4_"/>
  </g>
  <g id="Shape_3_1_" class="st0">
    <path class="st2" d="M695.6 105.1l-20.8 245.2L438.9 385l2.3-256.8 254.4-23.1m3.9-4l-261.8 23.8-2.4 264.2 242.8-35.7 21.4-252.3z" id="Shape_3"/>
  </g>
  <g id="Shape_4_1_" class="st0">
    <path class="st1" d="M150.9 357l-91.6-79.7 20.2 197.5 88.1 98.8z" id="Shape_4_4_"/>
  </g>
  <g id="Shape_5_1_" class="st0">
    <path class="st2" d="M304.2 227.7l57.1 72.5-209.4 52.9L67 279.2l237.2-51.5m1.4-4L59.3 277.3l91.6 79.7 216.6-54.7-61.9-78.6z" id="Shape_5"/>
  </g>
  <g id="Shape_6_1_" class="st0">
    <path class="st2" d="M366.1 306.3l66.4 83.9 1.3 1.6 2-.3 111.2-16-3.3 70.6-372.9 122.8-16.1-209.2 211.4-53.4m1.4-4L150.9 357l16.7 216.8 379.6-125.1 3.6-77.3-115.4 16.7-67.9-85.8z" id="Shape_6_4_"/>
  </g>
  <g id="Shape_7_1_" class="st0">
    <path class="st1" d="M359.5 510.5l-128.8 41.6 4.7 98.8 383.2 123.8 16.6-188z" id="Shape_7"/>
  </g>
  <g id="Shape_8_1_" class="st0">
    <path class="st2" d="M696.7 492.5l-16.2 157.3-56.9 107.5 15-169.6 58.1-95.2m5.2-15.3l-66.6 109.5-16.7 188L684 650.9l17.9-173.7z" id="Shape_8_4_"/>
  </g>
  <g id="Shape_9_1_" class="st0">
    <path class="st2" d="M550.9 445.7l145.4 33.9-62.7 103-261.8-72.3L548.3 452l2.3-.8.1-2.5.2-3m-3.4-4.5l-.3 7.4-187.7 61.9 275.7 76.2 66.6-109.5-154.3-36z" id="Shape_9"/>
  </g>
</svg>
