<svg id="svg-webdesign" xmlns="http://www.w3.org/2000/svg" viewBox="0 0 100 100">
  <path d="M70.1 50H11v3h59.1v-3zM50 61v24h39V61H50zm4.3-5H11v-1h43.3v1zm-10 6H11v-1h33.3v1zm2 3H11v-1h35.3v1zm-10 3H11v-1h25.3v1zm8 5H11v-1h33.3v1zm2 3H11v-1h35.3v1zm-1 3H11v-1h34.3v1zm-20 3H11v-1h14.3v1zM79 91h-3v-3h3v3zm5-3h-3v3h3v-3zm5 0h-3v3h3v-3zM5 5v90h90V5H5zm88 88H7V44h5v-4h14v4h67v49zM46.1 24.5H11v-3h35.1v3zM58 40v3H42v-3h16zM30.3 26.5v1H11v-1h19.3zM41 40v3H27v-3h14zm18 3v-3h14v3H59zm15 0v-3h14v3H74zm19-5H7V7h86v31zM19 12H9V9h10v3zm72-1h-8v-1h8v1zm-10 0h-8v-1h8v1zm-20 0h-8v-1h8v1zm10 0h-8v-1h8v1z"/>
</svg>
